<svg width="1058" height="785" viewBox="0 0 1058 785" fill="none" xmlns="http://www.w3.org/2000/svg">
	<g id="Byke 1" clip-path="url(#clip0)">
		<path id="Vector"
			d="M198.9 119.3C193.4 125.9 191.3 135.3 188.9 144.1C169.9 214.9 123.1 271.9 69.8 312.6C47.2 329.8 19.7 353 24.7 383.9C27.4 400.5 39 412.7 47.7 426.2C65.9 454.5 71.8 493 63.1 526.9C53.2 565.5 25.7 601.4 34.2 640.4C39.5 664.4 57.3 681.5 74.5 696.2C101.3 719.1 128.9 740.5 157.4 760.5C176.5 773.9 196.8 786.9 219.1 788.6C238.7 790.1 257.9 782.6 276.5 775.3C292.8 768.9 309.4 762.2 322.6 749.3C331.2 740.9 338 730 347.5 723.2C369.9 707 398.6 717.3 424.2 724.2C484.7 740.4 549.5 734.5 607 707.5C695.3 666 762.6 578.8 849 532.1C886.1 512 926.5 499.5 960.9 473.6C980.3 458.9 996.9 440.8 1010.1 420.4C1036.1 380.3 1050.2 329.1 1046.1 279.1C1042 229.1 1019.3 180.8 983.6 152.5C945.3 122.2 897 116.6 853.5 98.4C808.6 79.6 768.6 47.4 724.1 27.3C651.2 -5.59999 567.2 -3.69998 495.8 32.4C447.4 56.9 398.3 114.1 344.3 118.4C305.9 121.3 228.9 82.9 198.9 119.3Z"
			fill="url(#paint0_linear)" />
		<g id="left-wheel">
			<path id="Vector_2"
				d="M255.2 717L249 619L248.9 618.8L242.6 621L213.5 705.9L167.2 673.1L240.9 619.7L241 619.5L241.4 619.3L246.2 615.8L169 572.5L150.1 593.3L153.1 612.8L241.9 614.4V616.4L151.4 614.8L148 592.7L173.9 564.2L212.7 519L213.4 520.9L221.6 511.9L252.1 517.4V516.2L254.1 516.3V517.8L299.5 525.9L257.2 610.5L251 615V615.5V616.1L348.8 582L337.2 673.2L254.2 620.3L251.3 618.7L300.2 697.6L255.2 717ZM251.2 622.7L257.1 714.1L297.1 696.7L251.2 622.7ZM170.6 673.1L212.4 702.7L239.7 623L170.6 673.1ZM253 617.4L255.1 618.6L335.5 669.8L346.3 584.9L253 617.4ZM245.9 610.2L248.4 614.2L248.8 613.9L251.8 519.4L222.1 514.1L213.9 523.1L245.9 610.2ZM170.5 571.2L245.3 613.2L244 611L212.4 524.7L175.2 565.6L170.5 571.2ZM253.9 519.8L250.9 612.5L255.4 609.2L296.3 527.4L253.9 519.8Z"
				fill="#535461" />
			<path id="Vector_3"
				d="M364.9 590C360.9 572.2 352.8 555.5 341.2 541.4C336.9 536.2 332.2 531.3 327 526.8C277.8 484.3 203.5 489.8 161.1 539C118.6 588.2 124.1 662.5 173.3 704.9C222.5 747.3 296.8 741.9 339.2 692.7C353.5 676.1 362.9 655.8 366.4 634.1C367.3 628 367.8 621.9 367.8 615.8C367.8 607.1 366.8 598.5 364.9 590ZM249.7 704.3C200.7 704.2 161 664.5 161 615.5C161.1 566.5 200.8 526.8 249.8 526.8C298.8 526.9 338.5 566.6 338.5 615.6C338.5 620.9 338 626.2 337.1 631.4C329.4 673.7 292.6 704.3 249.7 704.3Z"
				fill="#535461" />
			<path id="Vector_4"
				d="M262.412 617.554C263.544 610.576 258.805 604.001 251.827 602.869C244.849 601.736 238.274 606.475 237.142 613.453C236.009 620.431 240.748 627.006 247.726 628.139C254.704 629.271 261.279 624.532 262.412 617.554Z"
				fill="#535461" />
		</g>
		<g id="right-wheel">
			<path id="Vector_5"
				d="M678.907 717.8L672.607 619.9L672.507 619.7L666.207 621.9L637.107 706.7L590.807 673.9L664.507 620.5L664.607 620.3L665.007 620.1L669.807 616.6L592.607 573.4L573.707 594.2L576.707 613.7L665.507 615.3V617.3L575.007 615.7L571.607 593.6L597.507 565.1L636.207 519.9L636.907 521.8L645.107 512.8L675.607 518.3V517.1L677.607 517.2V518.7L723.007 526.8L680.607 611.4L674.407 615.9V616.4V617L772.207 582.9L760.607 674.1L677.607 621.2L674.707 619.6L723.607 698.5L678.907 717.8ZM674.907 623.5L680.707 714.9L720.707 697.5L674.907 623.5ZM594.307 673.9L636.107 703.5L663.407 623.8L594.307 673.9ZM676.707 618.2L678.807 619.4L759.107 670.6L769.907 585.7L676.707 618.2ZM669.607 611L672.107 615L672.507 614.7L675.507 520.2L645.807 514.9L637.607 523.9L669.607 611ZM594.207 572L669.007 614L667.707 611.9L636.107 525.6L598.907 566.5L594.207 572ZM677.507 520.6L674.507 613.3L679.007 610L719.907 528.2L677.507 520.6Z"
				fill="#535461" />
			<path id="Vector_6"
				d="M673.807 499C663.207 499 652.607 500.4 642.407 503.2C637.107 504.7 632.007 506.5 626.907 508.7C567.307 534.6 539.907 603.9 565.707 663.5C591.607 723.1 660.907 750.5 720.507 724.7C780.107 698.8 807.507 629.5 781.707 569.9C763.107 526.9 720.707 499 673.807 499ZM673.407 705.1C624.307 705.1 584.607 665.3 584.607 616.2C584.607 581.4 604.907 549.9 636.507 535.4C641.207 533.3 646.107 531.5 651.107 530.2C698.607 517.9 747.107 546.4 759.407 593.9C771.707 641.4 743.207 689.9 695.707 702.2C688.507 704.1 681.007 705.1 673.407 705.1Z"
				fill="#535461" />
			<path id="Vector_7"
				d="M673.407 629.1C680.476 629.1 686.207 623.369 686.207 616.3C686.207 609.231 680.476 603.5 673.407 603.5C666.338 603.5 660.607 609.231 660.607 616.3C660.607 623.369 666.338 629.1 673.407 629.1Z"
				fill="#535461" />
		</g>
		<g id="man-bike">
			<path id="Vector_8" d="M344.326 512.137L330.98 525.661L373.688 567.805L387.034 554.281L344.326 512.137Z"
				fill="#535461" />
			<path id="Vector_9"
				d="M354.5 492C354.5 492 379.3 478.9 388.9 470.5C394.7 465.5 400.9 460.9 407.4 457L438.5 438.1L503.5 433.1L506.5 444.1C506.5 444.1 511.5 460.1 461.5 474.1C411.5 488.1 386.5 510.1 386.5 510.1C386.5 510.1 354.5 521 354.5 492Z"
				fill="#DB8B8B" />
			<path id="Vector_10" opacity="0.1"
				d="M389.1 507.9C387.3 509.2 386.5 510 386.5 510C386.5 510 354.5 521 354.5 492C354.5 492 356 491.2 358.5 489.8C363.5 498 372.5 503 382.1 503H385.5L389.1 507.9Z"
				fill="black" />
			<path id="Vector_11" opacity="0.05"
				d="M505.5 449.5C502.7 455.4 493.1 465.1 461.4 473.9C420.8 485.3 396.7 501.9 389 507.8C387.2 509.1 386.4 509.9 386.4 509.9C386.4 509.9 354.4 520.9 354.4 491.9C354.4 491.9 355.9 491.1 358.4 489.7C365.8 485.6 381.6 476.7 388.7 470.4C394.5 465.4 400.7 460.8 407.2 456.9L438.3 438L449.9 437.1L503.3 433L506.3 444C506.4 444 507.1 446.1 505.5 449.5Z"
				fill="black" />
			<path id="Vector_12"
				d="M355 485.5L328.5 503L406.1 568C406.1 568 417.5 561 411.5 553C411.5 553 391.5 536 390.5 512L384.5 504H381.1C369.3 504 358.9 496.6 355 485.5Z"
				fill="#ABB1D1" />
			<path id="Vector_13" opacity="0.1"
				d="M505.5 449.5C489.5 441.8 450.4 440.9 450.4 440.9L450 437L503.4 432.9L506.4 443.9C506.5 444 507.1 446.1 505.5 449.5Z"
				fill="black" />
			<path id="Vector_14" d="M450.5 439C450.5 439 497.5 440 509.5 450L503.5 329H438.5L450.5 439Z"
				fill="#ABB1D1" />
			<path id="Vector_15" opacity="0.05"
				d="M450.5 438.5C450.5 438.5 497.5 439.5 509.5 449.5L503.5 328.5H438.5L450.5 438.5Z" fill="black" />
			<path id="Vector_16"
				d="M488.2 364.9C488.2 364.9 605.8 360.9 608.2 376.1C610.6 391.3 490.6 385 490.6 385C490.6 385 481 375.3 488.2 364.9Z"
				fill="#535461" />
			<path id="Vector_17" opacity="0.05"
				d="M488.2 364.9C488.2 364.9 605.8 360.9 608.2 376.1C610.6 391.3 490.6 385 490.6 385C490.6 385 481 375.3 488.2 364.9Z"
				fill="black" />
			<path id="Vector_18" d="M393 425.8H372.2V606.7H393V425.8Z" fill="#848484" />
			<path id="Vector_19" opacity="0.1" d="M393 425.8V439.7C386.1 440.6 379 441.2 372.2 441.4V425.8H393V425.8Z"
				fill="black" />
			<path id="Vector_20"
				d="M391.4 410.8C388.5 410.6 385.6 410.2 382.7 409.6C371.4 407.4 343 402.9 335.3 410.6C325.7 420.2 328.9 437 354.5 439.4C380.1 441.8 424.1 435.4 432.9 425.8C433 425.8 417.1 412.8 391.4 410.8Z"
				fill="#535461" />
			<path id="Vector_21" d="M387.4 475.4L605.9 407.4L613.1 424.2L389 501L387.4 475.4Z" fill="#848484" />
			<path id="Vector_22" d="M452.2 582.7L609.9 427.4L618.7 440.2L468.2 597L452.2 582.7Z" fill="#848484" />
			<path id="Vector_23" opacity="0.1"
				d="M653.6 529.8C648.6 531.1 643.7 532.8 639 535L629.4 508.3C634.4 506.1 639.6 504.3 644.9 502.8L653.6 529.8Z"
				fill="black" />
			<path id="Vector_24" d="M680.3 608.3L669.1 614.7L591 396.3L587.5 386.6L605.9 376.1L610.5 390.5L680.3 608.3Z"
				fill="#848484" />
			<path id="Vector_25" opacity="0.1" d="M610.5 390.5L591 396.3L587.5 386.6L605.9 376.1L610.5 390.5Z"
				fill="black" />
			<path id="Vector_26"
				d="M491.4 407.4L601 369.8C601 369.8 620.2 372.2 613 388.2L502.6 421C502.6 421 485.9 422.6 491.4 407.4Z"
				fill="#535461" />
			<path id="Vector_27" opacity="0.1"
				d="M367.8 615.9C367.8 622 367.3 628.2 366.4 634.2C356.8 633.5 346.9 632.5 337.2 631.5C339.4 619.6 339.1 607.4 336.4 595.6C345.9 593.6 355.5 591.7 365 590C366.8 598.5 367.8 607.2 367.8 615.9Z"
				fill="black" />
			<path id="Vector_28" opacity="0.1" d="M393 585.4V606.7H372.2V588.7C379.4 587.4 386.4 586.3 393 585.4Z"
				fill="black" />
			<path id="Vector_29"
				d="M258.5 615.5C258.5 615.5 426.6 571.5 440.2 588.3C453.8 605.1 468.2 627.5 425.8 635.5C383.4 643.5 255.3 621.9 255.3 621.9L258.5 615.5Z"
				fill="#848484" />
			<path id="Vector_30" opacity="0.1"
				d="M341.2 541.4L319.8 560.9C316 556 311.7 551.6 307 547.6L326.9 526.8C332.2 531.2 336.9 536.1 341.2 541.4Z"
				fill="black" />
			<path id="Vector_31" d="M252.9 606.7L378.6 475.4L382.6 505.8L259.3 618.7L252.9 606.7Z" fill="#848484" />
			<path id="Vector_32" opacity="0.1"
				d="M251.3 628.3C258.369 628.3 264.1 622.569 264.1 615.5C264.1 608.431 258.369 602.7 251.3 602.7C244.231 602.7 238.5 608.431 238.5 615.5C238.5 622.569 244.231 628.3 251.3 628.3Z"
				fill="black" />
			<path id="Vector_33" opacity="0.1"
				d="M675.1 627.1C682.169 627.1 687.9 621.369 687.9 614.3C687.9 607.231 682.169 601.5 675.1 601.5C668.031 601.5 662.3 607.231 662.3 614.3C662.3 621.369 668.031 627.1 675.1 627.1Z"
				fill="black" />
			<path id="Vector_34" opacity="0.1"
				d="M448.2 628.3C462.339 628.3 473.8 616.839 473.8 602.7C473.8 588.562 462.339 577.1 448.2 577.1C434.062 577.1 422.6 588.562 422.6 602.7C422.6 616.839 434.062 628.3 448.2 628.3Z"
				fill="black" />
			<path id="Vector_35"
				d="M449.8 628.3C463.938 628.3 475.4 616.839 475.4 602.7C475.4 588.562 463.938 577.1 449.8 577.1C435.661 577.1 424.2 588.562 424.2 602.7C424.2 616.839 435.661 628.3 449.8 628.3Z"
				fill="#535461" />
			<path id="Vector_36"
				d="M443 600.7C446 598.4 450.3 599.1 452.5 602.1L472.8 629.3C475 632.3 474.4 636.6 471.4 638.8C468.4 641 464.1 640.4 461.9 637.4L441.6 610.2C439.4 607.3 440 603 443 600.7Z"
				fill="#6C63FF" />
			<path id="Vector_37"
				d="M565.5 247L563.1 277.1C562.8 280.9 562.9 284.7 563.3 288.6C563.6 292 563.3 297.9 560 306.9C555.8 318.4 553.6 330.5 553.5 342.8V377L530.5 373C530.5 373 531.5 325 527.5 317C523.5 309 530.5 238 530.5 238L565.5 247Z"
				fill="#DB8B8B" />
			<path id="Vector_38" opacity="0.05"
				d="M564.3 261.9L563.1 277.1C562.8 280.9 562.9 284.7 563.3 288.5C563.6 291.9 563.3 297.8 560 306.8C555.8 318.3 553.6 330.4 553.5 342.7V377L530.5 373C530.5 373 531.5 325 527.5 317C524.7 311.3 527.3 274.1 529.2 252.8C530 244 530.5 238 530.5 238L565.5 247L564.3 261.9Z"
				fill="black" />
			<path id="Vector_39"
				d="M451.5 477L442.8 526.2C441.7 532.8 440 539.2 437.8 545.5C432.7 559.4 436 578.8 438.4 589.4C439.5 594.1 440.4 597 440.4 597L414.4 611L406.4 605V601L405.4 512C399.4 498 401.4 477 405.4 469C406.5 466.4 407.3 463.6 407.8 460.8C409.8 450.1 410.4 435 410.4 435C410.4 435 426.4 408 445.4 426C452.4 432.6 455.1 441.3 455.6 449.6C456.7 463.8 451.5 477 451.5 477Z"
				fill="#DB8B8B" />
			<path id="Vector_40" opacity="0.1"
				d="M455.7 449.6C441.8 457.8 417.7 460.2 407.9 460.8C409.9 450.1 410.5 435 410.5 435C410.5 435 426.5 408 445.5 426C452.5 432.6 455.1 441.3 455.7 449.6Z"
				fill="black" />
			<path id="Vector_41"
				d="M489.5 425C478.9 430.7 468.8 437.4 459.5 445C443.5 458 403.5 459 403.5 459V444C404.5 426 387.5 406 364.5 350C349.8 314.2 353.9 294 358.7 284C361.5 278.4 364.5 276 364.5 276L489.5 300L494 313.4L503.5 342C503.5 342 468.5 344 462.5 347C456.5 350 460.5 377 460.5 377C454.5 405 489.5 425 489.5 425Z"
				fill="#ABB1D1" />
			<path id="Vector_42" opacity="0.1"
				d="M565.5 247L564.3 261.9C546.9 266.9 534.5 251 534.5 251C532.7 251.5 530.9 252.1 529.2 252.8C530 244 530.5 238 530.5 238L565.5 247Z"
				fill="black" />
			<path id="Vector_43" opacity="0.1"
				d="M493.9 313.4C493.4 318.1 493.4 321 493.4 321C493.4 321 470.4 340 431.4 311C392.4 282 357.4 290 357.4 290C357.4 290 357.8 287.7 358.6 284C361.4 278.4 364.4 276 364.4 276L489.4 300L493.9 313.4Z"
				fill="black" />
			<path id="Vector_44"
				d="M579 207.9C576.4 228.3 575.5 253.9 575.5 253.9C552.5 271.9 534.5 248.9 534.5 248.9C512.8 254.7 502.6 273.7 497.8 290.3C495.2 299.3 493.8 308.5 493.5 317.9C493.5 317.9 487.4 322.9 476.2 323.9C465.6 324.8 450.4 322 431.5 307.9C392.5 278.9 357.5 286.9 357.5 286.9C357.5 286.9 364.5 246.9 380.5 234.9C396.5 222.9 408.5 207.9 428.5 161.9C448.5 115.9 489.5 126.9 489.5 126.9C489.5 126.9 491.5 117.9 528.5 126.9C537.5 129.3 545.9 133.7 552.9 139.8C572.6 156.5 582.2 182.3 579 207.9Z"
				fill="white" />
			<path id="Vector_45"
				d="M541.8 149.5C541.8 150.8 541.6 152.3 541.5 154C539.5 172 537.5 170 515.5 174C501.8 176.5 494.7 165.1 491.3 156.1C490.1 152.8 489.1 149.5 488.5 146L536.5 138C536.5 138 542.3 136.3 541.8 149.5Z"
				fill="#DB8B8B" />
			<path id="Vector_46" opacity="0.05"
				d="M497.7 290.4C495.1 299.4 493.7 308.6 493.4 318C493.4 318 487.3 323 476.1 324C475.8 323.4 475.5 322.7 475.4 322C473.4 313 458.4 297 458.4 297C448.4 288 446.4 272 446.4 272L430 223.5L424.5 219C424.5 219 447.5 201 467.5 216C487.5 231 481.5 263 481.5 263L485.5 274C489.6 277.5 493.9 283.7 497.7 290.4Z"
				fill="black" />
			<path id="Vector_47"
				d="M427.5 218L449.5 271C449.5 271 451.5 287 461.5 296C461.5 296 476.5 312 478.5 321C480.5 330 508.5 354 508.5 354C508.5 354 534.5 378 536.5 387C536.5 387 560.5 394 557.5 408C557.5 408 575.5 390 557.5 373C539.5 356 515.5 321 515.5 321C515.5 321 501.5 284 488.5 273L484.5 262C484.5 262 490.5 230 470.5 215C450.5 200 427.5 218 427.5 218Z"
				fill="#DB8B8B" />
			<path id="Vector_48" opacity="0.1"
				d="M440.5 597L414.5 611L406.5 605V601C415.5 600.4 424.2 597.7 432 593.3C434.4 591.9 436.7 590.6 438.5 589.4C439.6 594 440.5 597 440.5 597Z"
				fill="black" />
			<path id="Vector_49" opacity="0.1"
				d="M470.5 176L484.5 231C484.5 231 441.5 238 432.5 231C423.5 224 406.5 222 406.5 222C406.5 222 424.5 170 434.5 164C444.5 158 470.5 176 470.5 176Z"
				fill="black" />
			<path id="Vector_50"
				d="M470.5 174L484.5 229C484.5 229 441.5 236 432.5 229C423.5 222 406.5 220 406.5 220C406.5 220 424.5 168 434.5 162C444.5 156 470.5 174 470.5 174Z"
				fill="white" />
			<path id="Vector_51" opacity="0.1"
				d="M541.8 148.5C530.5 164.2 508.6 167.7 492.9 156.3C492.3 155.9 491.8 155.5 491.2 155C490 151.7 489 148.4 488.4 144.9L536.4 136.9C536.5 137 542.3 135.3 541.8 148.5Z"
				fill="black" />
			<path id="Vector_52"
				d="M548.5 127C548.5 146.3 532.8 162 513.5 162C494.2 162 478.5 146.3 478.5 127C478.5 126.4 478.5 125.8 478.5 125.3C479 106 495 90.7 514.4 91.2C533.7 91.6 549 107.7 548.5 127Z"
				fill="#DB8B8B" />
			<path id="Vector_53" opacity="0.1"
				d="M548.5 127C548.5 130.2 548.1 133.4 547.2 136.5C544.5 137.1 541.7 136.8 539.1 135.8C535.4 134.3 532.1 131.8 528.6 130C518.5 124.9 506.5 125.9 495.3 127.6C489.7 128.4 483.4 129.2 479.1 125.7C478.9 125.6 478.8 125.5 478.7 125.3C479.2 106 495.2 90.7 514.6 91.2C533.7 91.6 549 107.7 548.5 127Z"
				fill="black" />
			<path id="Vector_54" opacity="0.05"
				d="M385 234.5C385 234.5 411 241.5 419 259.5C427 277.5 448.6 280.8 448.6 280.8" fill="black" />
			<path id="Vector_55" d="M483 630.5H423V649.5H483V630.5Z" fill="#535461" />
			<path id="Vector_56"
				d="M432 595.2C437.4 592.2 442.1 589.2 442.5 588C442.5 588 456 602.3 468.1 606.7C472.2 608.2 476 610.1 479.7 612.5C484.5 615.5 491.3 619 497.5 619C497.5 619 511.5 631 484.5 633C457.5 635 394.5 628 394.5 628L398.5 603C410.2 603.7 421.8 601 432 595.2Z"
				fill="#ABB1D1" />
		</g>
		<path id="hat"
			d="M453.2 105.3C455.3 112 465.6 112.2 470.8 117.1C473.5 119.7 474.8 123.4 477.8 125.7C482 128.9 488 128.2 493.3 127.4C504 125.9 515.5 125 525.1 129.6C528.5 131.2 531.6 133.5 535.2 134.8C538.8 136.1 543.2 136.3 546.1 133.9C548.4 132 549.3 128.9 551.4 126.8C553 125.2 555.3 124.2 557.2 122.8C561.3 119.7 563 114.7 564.2 109.9C566.6 100 567.3 89.4 563.2 80C559.1 70.6 549.3 63 538.5 63.5C535.2 63.7 532 64.5 528.7 64.9C520.2 65.8 511.7 62.9 503.1 62.4C500.6 62.1 498.1 62.4 495.8 63.4C494.1 64.4 492.5 65.7 491.4 67.4C487.5 72.5 484.8 78.5 483.5 84.9C482.5 89.7 482.5 94 476.6 94.8C469.9 95.7 448.6 91.2 453.2 105.3Z"
			fill="#472727" />
	</g>
	<defs>
		<linearGradient id="paint0_linear" x1="875" y1="114" x2="75" y2="680" gradientUnits="userSpaceOnUse">
			<stop stop-color="#01FFF0" />
			<stop offset="1" stop-color="#D824C6" />
		</linearGradient>
		<clipPath id="clip0">
			<rect width="1057.7" height="785" fill="white" />
		</clipPath>
	</defs>
</svg>